<svg version="1.1" xmlns="http://www.w3.org/2000/svg" viewBox="-228.35199279785155 -3699.1999877929684 6468.6080078125 4282.879968261718"><desc>Created with Snap</desc><defs></defs><g><g transform="matrix(30.6282,0,0,30.6282,1459.2196,-3775.2355)"><g><path d="M74.265,60.41c0.964,2.929,1.401,5.966,1.261,9.015c2.584-0.989,5.013-2.49,7.095-4.572c0.244-0.244,0.41-0.527,0.637-0.78   c0.018-0.341,0.105-0.659,0.105-1.004c0-2.924-0.646-5.691-1.764-8.203C79.522,57.139,77.045,59.022,74.265,60.41z" fill="#e94b3c" style=""></path><path d="M54.863,81.605c2.509,1.112,5.276,1.759,8.2,1.759c0.349,0,0.664-0.085,1.004-0.103c0.253-0.227,0.541-0.393,0.781-0.637   c2.08-2.085,3.585-4.516,4.572-7.104c-3.049,0.14-6.086-0.292-9.01-1.257C59.022,77.049,57.137,79.528,54.863,81.605z" fill="#e94b3c" style=""></path><path d="M40.588,74.265c-2.925,0.965-5.965,1.396-9.013,1.257c0.988,2.588,2.49,5.023,4.573,7.104   c0.242,0.244,0.528,0.41,0.779,0.637c0.339,0.018,0.661,0.103,1.003,0.103c2.926,0,5.691-0.646,8.202-1.759   C43.861,79.528,41.976,77.049,40.588,74.265z" fill="#e94b3c" style=""></path><path d="M26.731,60.41c-2.781-1.388-5.26-3.271-7.337-5.545c-1.112,2.512-1.758,5.279-1.758,8.203c0,0.345,0.085,0.663,0.1,1.004   c0.229,0.253,0.395,0.536,0.639,0.78c2.082,2.082,4.515,3.583,7.098,4.572C25.333,66.376,25.767,63.339,26.731,60.41z" fill="#e94b3c" style=""></path><path d="M26.731,40.592c-0.964-2.929-1.398-5.966-1.259-9.016c-2.583,0.989-5.014,2.491-7.098,4.572   c-0.244,0.245-0.41,0.528-0.639,0.781c-0.015,0.341-0.1,0.659-0.1,1.004c0,2.924,0.646,5.69,1.76,8.205   C21.471,43.863,23.95,41.979,26.731,40.592z" fill="#e94b3c" style=""></path><path d="M46.132,19.397c-2.511-1.114-5.275-1.76-8.202-1.76c-0.342,0-0.664,0.084-1.003,0.102   c-0.251,0.228-0.537,0.393-0.779,0.638c-2.083,2.08-3.585,4.515-4.573,7.103c3.048-0.14,6.088,0.293,9.013,1.257   C41.976,23.952,43.861,21.475,46.132,19.397z" fill="#e94b3c" style=""></path><path d="M60.41,26.736c2.924-0.964,5.961-1.396,9.01-1.257c-0.99-2.588-2.492-5.017-4.572-7.103   c-0.24-0.245-0.528-0.41-0.781-0.638c-0.34-0.018-0.659-0.102-1.004-0.102c-2.924,0-5.691,0.646-8.2,1.76   C57.137,21.475,59.022,23.952,60.41,26.736z" fill="#e94b3c" style=""></path><path d="M82.621,36.148c-2.082-2.081-4.511-3.583-7.095-4.572c0.14,3.05-0.297,6.087-1.261,9.016   c2.78,1.388,5.257,3.271,7.334,5.547c1.117-2.515,1.764-5.281,1.764-8.205c0-0.345-0.088-0.663-0.105-1.004   C83.031,36.677,82.865,36.394,82.621,36.148z" fill="#e94b3c" style=""></path><path d="M58.228,63.068c0-0.166-0.048-0.319-0.052-0.484c-1.061-0.21-2.09-0.498-3.099-0.834c-0.462,0.921-0.89,1.851-1.469,2.719   c0.113,0.122,0.19,0.267,0.309,0.384c1.143,1.14,2.404,2.069,3.718,2.881C57.993,66.228,58.228,64.683,58.228,63.068z" fill="#e94b3c" style=""></path><path d="M43.362,67.733c1.313-0.812,2.574-1.741,3.715-2.881c0.12-0.117,0.199-0.262,0.312-0.384   c-0.581-0.868-1.008-1.798-1.471-2.719c-1.008,0.336-2.038,0.624-3.1,0.834c-0.002,0.165-0.048,0.318-0.048,0.484   C42.771,64.683,43.006,66.228,43.362,67.733z" fill="#e94b3c" style=""></path><path d="M36.148,53.922c-1.139,1.14-2.068,2.4-2.88,3.717c1.503,0.355,3.051,0.59,4.663,0.59c0.166,0,0.318-0.044,0.484-0.048   c0.209-1.06,0.495-2.094,0.833-3.102c-0.918-0.463-1.848-0.886-2.716-1.471C36.411,53.726,36.269,53.805,36.148,53.922z" fill="#e94b3c" style=""></path><path d="M38.415,42.821c-0.166-0.006-0.319-0.05-0.484-0.05c-1.612,0-3.159,0.236-4.663,0.591c0.812,1.318,1.739,2.578,2.88,3.717   c0.12,0.118,0.262,0.196,0.384,0.314c0.868-0.583,1.797-1.008,2.716-1.471C38.91,44.916,38.625,43.881,38.415,42.821z" fill="#e94b3c" style=""></path><path d="M42.771,37.934c0,0.166,0.046,0.318,0.048,0.484c1.062,0.21,2.092,0.498,3.1,0.834c0.462-0.921,0.89-1.851,1.471-2.719   c-0.113-0.123-0.192-0.267-0.312-0.385c-1.141-1.139-2.402-2.066-3.715-2.879C43.006,34.774,42.771,36.319,42.771,37.934z" fill="#e94b3c" style=""></path><path d="M57.635,33.27c-1.314,0.812-2.575,1.74-3.718,2.879c-0.118,0.118-0.195,0.262-0.309,0.385   c0.579,0.868,1.007,1.798,1.469,2.719c1.008-0.336,2.038-0.624,3.099-0.834c0.004-0.166,0.052-0.318,0.052-0.484   C58.228,36.319,57.993,34.774,57.635,33.27z" fill="#e94b3c" style=""></path><path d="M63.063,42.771c-0.166,0-0.314,0.044-0.48,0.05c-0.209,1.06-0.498,2.095-0.838,3.102c0.921,0.463,1.851,0.888,2.719,1.471   c0.122-0.118,0.266-0.196,0.384-0.314c1.139-1.139,2.067-2.398,2.883-3.717C66.226,43.008,64.678,42.771,63.063,42.771z" fill="#e94b3c" style=""></path><path d="M48.074,49.493c-0.035,0.676-0.035,1.339,0,2.012c0.452,0.502,0.921,0.969,1.42,1.423c0.671,0.034,1.335,0.034,2.007,0   c0.5-0.454,0.972-0.926,1.423-1.423c0.035-0.673,0.033-1.336,0-2.008c-0.451-0.502-0.921-0.969-1.42-1.423   c-0.673-0.035-1.34-0.035-2.012,0C48.995,48.528,48.524,48.995,48.074,49.493z" fill="#e94b3c" style=""></path><path d="M64.464,53.608c-0.868,0.585-1.798,1.008-2.719,1.471c0.34,1.008,0.628,2.042,0.838,3.102   c0.166,0.004,0.314,0.048,0.48,0.048c1.615,0,3.163-0.234,4.668-0.59c-0.816-1.316-1.745-2.577-2.883-3.717   C64.73,53.805,64.586,53.726,64.464,53.608z" fill="#e94b3c" style=""></path><path d="M72.271,55.926c2.583-1.327,4.827-3.173,6.615-5.425c-1.788-2.252-4.031-4.098-6.615-5.425   c-1.091,1.929-2.357,3.784-3.998,5.425C69.914,52.142,71.179,53.996,72.271,55.926z" fill="#e94b3c" style=""></path><path d="M62.138,31.245c0.585,2.133,0.925,4.367,0.925,6.688c2.322,0,4.555,0.341,6.689,0.93c0.868-2.745,1.143-5.603,0.82-8.436   C67.74,30.104,64.879,30.375,62.138,31.245z" fill="#e94b3c" style=""></path><path d="M50.498,22.11c-2.253,1.794-4.099,4.033-5.424,6.616c1.927,1.096,3.782,2.361,5.424,4.002   c1.644-1.641,3.498-2.906,5.426-4.002C54.597,26.144,52.752,23.904,50.498,22.11z" fill="#e94b3c" style=""></path><path d="M37.931,37.934c0-2.321,0.34-4.556,0.927-6.688c-2.74-0.87-5.601-1.141-8.432-0.817c-0.323,2.833-0.05,5.69,0.817,8.436   C33.377,38.274,35.612,37.934,37.931,37.934z" fill="#e94b3c" style=""></path><path d="M22.108,50.501c1.794,2.252,4.034,4.098,6.618,5.425c1.091-1.93,2.356-3.784,3.999-5.425   c-1.643-1.641-2.908-3.496-4.001-5.425C26.143,46.403,23.902,48.249,22.108,50.501z" fill="#e94b3c" style=""></path><path d="M38.858,69.757c-0.587-2.133-0.927-4.367-0.927-6.688c-2.319,0-4.553-0.341-6.688-0.93   c-0.868,2.745-1.14,5.604-0.817,8.436C33.257,70.896,36.118,70.627,38.858,69.757z" fill="#e94b3c" style=""></path><path d="M50.498,78.891c2.255-1.793,4.1-4.032,5.426-6.616c-1.929-1.095-3.782-2.36-5.426-4c-1.642,1.64-3.497,2.905-5.424,4   C46.401,74.858,48.245,77.098,50.498,78.891z" fill="#e94b3c" style=""></path><path d="M63.063,63.068c0,2.321-0.34,4.556-0.925,6.688c2.741,0.87,5.602,1.139,8.435,0.817c0.323-2.832,0.048-5.695-0.82-8.436   C67.618,62.728,65.385,63.068,63.063,63.068z" fill="#e94b3c" style=""></path><path d="M87.425,44.026c-0.571,2.304-1.457,4.476-2.614,6.475c1.157,1.999,2.043,4.177,2.614,6.475   C88.844,52.771,88.844,48.231,87.425,44.026z" fill="#e94b3c" style=""></path><path d="M81.233,29.05c-1.981-4.041-5.244-7.301-9.286-9.282c1.249,2.063,2.147,4.268,2.745,6.541   C76.966,26.907,79.165,27.802,81.233,29.05z" fill="#e94b3c" style=""></path><path d="M56.971,13.576c-4.204-1.418-8.742-1.418-12.947,0c2.3,0.571,4.473,1.453,6.473,2.614   C52.5,15.029,54.671,14.147,56.971,13.576z" fill="#e94b3c" style=""></path><path d="M29.047,19.768c-4.042,1.981-7.301,5.241-9.284,9.282c2.066-1.248,4.268-2.143,6.541-2.741   C26.904,24.035,27.798,21.831,29.047,19.768z" fill="#e94b3c" style=""></path><path d="M13.571,56.973c0.574-2.3,1.458-4.473,2.616-6.472c-1.159-1.999-2.04-4.171-2.616-6.472   C12.158,48.231,12.158,52.771,13.571,56.973z" fill="#e94b3c" style=""></path><path d="M19.765,71.952c1.981,4.041,5.24,7.297,9.279,9.282c-1.248-2.068-2.141-4.269-2.741-6.542   C24.031,74.095,21.829,73.2,19.765,71.952z" fill="#e94b3c" style=""></path><path d="M44.024,87.426c4.205,1.418,8.746,1.418,12.947,0c-2.3-0.572-4.472-1.453-6.474-2.614   C48.498,85.973,46.324,86.854,44.024,87.426z" fill="#e94b3c" style=""></path><path d="M71.952,81.234c4.037-1.985,7.3-5.241,9.281-9.282c-2.068,1.248-4.267,2.143-6.541,2.74   C74.095,76.966,73.2,79.166,71.952,81.234z" fill="#e94b3c" style=""></path></g><desc>Created with Snap</desc><defs></defs></g><g><g transform="matrix(1.024,0,0,-1.024,0,0)"><path d="M507 0L383 0L168 242L168 0L77 0L77 740L168 740L168 305L379 548L506 548L248 275L507 0ZM558 276Q558 360 592 423Q626 487 685 522Q745 557 818 557Q890 557 943 526Q996 495 1022 448L1022 548L1114 548L1114 0L1022 0L1022 102Q995 54 941 22Q888 -9 817 -9Q744 -9 685 27Q626 63 592 128Q558 193 558 276ZM1022 275Q1022 337 997 383Q972 429 929 453Q887 478 836 478Q785 478 743 454Q701 430 676 384Q651 338 651 276Q651 213 676 166Q701 120 743 95Q785 71 836 71Q887 71 929 95Q972 120 997 166Q1022 213 1022 275ZM1462 -9Q1399 -9 1349 12Q1299 34 1270 72Q1241 111 1238 161L1332 161Q1336 120 1370 94Q1405 68 1461 68Q1513 68 1543 91Q1573 114 1573 149Q1573 185 1541 202Q1509 220 1442 237Q1381 253 1342 269Q1304 286 1276 318Q1249 351 1249 404Q1249 446 1274 481Q1299 516 1345 536Q1391 557 1450 557Q1541 557 1597 511Q1653 465 1657 385L1566 385Q1563 428 1531 454Q1500 480 1447 480Q1398 480 1369 459Q1340 438 1340 404Q1340 377 1357 359Q1375 342 1401 331Q1428 321 1475 308Q1534 292 1571 276Q1608 261 1634 230Q1661 199 1662 149Q1662 104 1637 68Q1612 32 1566 11Q1521 -9 1462 -9ZM2029 -9Q1952 -9 1889 26Q1827 61 1791 125Q1756 190 1756 275Q1756 359 1792 423Q1829 488 1892 522Q1955 557 2033 557Q2111 557 2174 522Q2237 488 2273 424Q2310 360 2310 275Q2310 190 2272 125Q2235 61 2171 26Q2107 -9 2029 -9ZM2029 71Q2078 71 2121 94Q2164 117 2190 163Q2217 209 2217 275Q2217 341 2191 387Q2165 433 2123 455Q2081 478 2032 478Q1982 478 1940 455Q1899 433 1874 387Q1849 341 1849 275Q1849 208 1873 162Q1898 116 1939 93Q1980 71 2029 71ZM2697 558Q2797 558 2859 497Q2921 437 2921 323L2921 0L2831 0L2831 310Q2831 392 2790 435Q2749 479 2678 479Q2606 479 2563 434Q2521 389 2521 303L2521 0L2430 0L2430 548L2521 548L2521 470Q2548 512 2594 535Q2641 558 2697 558ZM3296 557Q3367 557 3420 526Q3474 495 3500 448L3500 548L3592 548L3592 -12Q3592 -87 3560 -146Q3528 -204 3468 -237Q3409 -270 3330 -270Q3222 -270 3150 -219Q3078 -168 3065 -80L3155 -80Q3170 -130 3217 -161Q3264 -191 3330 -191Q3405 -191 3452 -144Q3500 -97 3500 -12L3500 103Q3473 55 3420 23Q3367 -9 3296 -9Q3223 -9 3163 27Q3104 63 3070 128Q3036 193 3036 276Q3036 360 3070 423Q3104 487 3163 522Q3223 557 3296 557ZM3500 275Q3500 337 3475 383Q3450 429 3407 453Q3365 478 3314 478Q3263 478 3221 454Q3179 430 3154 384Q3129 338 3129 276Q3129 213 3154 166Q3179 120 3221 95Q3263 71 3314 71Q3365 71 3407 95Q3450 120 3475 166Q3500 213 3500 275ZM3712 276Q3712 360 3746 423Q3780 487 3839 522Q3899 557 3972 557Q4044 557 4097 526Q4150 495 4176 448L4176 548L4268 548L4268 0L4176 0L4176 102Q4149 54 4095 22Q4042 -9 3971 -9Q3898 -9 3839 27Q3780 63 3746 128Q3712 193 3712 276ZM4176 275Q4176 337 4151 383Q4126 429 4083 453Q4041 478 3990 478Q3939 478 3897 454Q3855 430 3830 384Q3805 338 3805 276Q3805 213 3830 166Q3855 120 3897 95Q3939 71 3990 71Q4041 71 4083 95Q4126 120 4151 166Q4176 213 4176 275ZM4422 697L4513 697L4513 0L4422 0L4422 697ZM4935 558Q5035 558 5097 497Q5159 437 5159 323L5159 0L5069 0L5069 310Q5069 392 5028 435Q4987 479 4916 479Q4844 479 4801 434Q4759 389 4759 303L4759 0L4668 0L4668 548L4759 548L4759 470Q4786 512 4832 535Q4879 558 4935 558ZM5274 275Q5274 360 5308 423Q5342 487 5402 522Q5463 557 5541 557Q5642 557 5707 508Q5773 459 5794 372L5696 372Q5682 422 5641 451Q5601 480 5541 480Q5463 480 5415 426Q5367 373 5367 275Q5367 176 5415 122Q5463 68 5541 68Q5601 68 5641 96Q5681 124 5696 176L5794 176Q5772 92 5706 41Q5640 -9 5541 -9Q5463 -9 5402 26Q5342 61 5308 125Q5274 189 5274 275Z" fill="#2d2926" style=""></path></g></g></g></svg>